<mxfile host="app.diagrams.net" agent="Mozilla/5.0 (Windows NT 10.0; Win64; x64) AppleWebKit/537.36 (KHTML, like Gecko) Chrome/129.0.0.0 Safari/537.36" version="24.8.0">
  <diagram name="Seite-1" id="VcXlG-Zxi4X1gzYRlUgZ">
    <mxGraphModel dx="2100" dy="1130" grid="1" gridSize="10" guides="1" tooltips="1" connect="1" arrows="1" fold="1" page="1" pageScale="1" pageWidth="1169" pageHeight="1654" math="0" shadow="0">
      <root>
        <mxCell id="0" />
        <mxCell id="1" parent="0" />
        <mxCell id="MedS3iBNAUiih5z8siWC-29" style="edgeStyle=orthogonalEdgeStyle;rounded=0;orthogonalLoop=1;jettySize=auto;html=1;exitX=1;exitY=0.5;exitDx=0;exitDy=0;entryX=0;entryY=0.5;entryDx=0;entryDy=0;" edge="1" parent="1" source="MedS3iBNAUiih5z8siWC-2" target="MedS3iBNAUiih5z8siWC-3">
          <mxGeometry relative="1" as="geometry" />
        </mxCell>
        <mxCell id="MedS3iBNAUiih5z8siWC-2" value="" style="ellipse;whiteSpace=wrap;html=1;aspect=fixed;fillColor=#000000;" vertex="1" parent="1">
          <mxGeometry x="40" y="40" width="40" height="40" as="geometry" />
        </mxCell>
        <mxCell id="MedS3iBNAUiih5z8siWC-30" style="edgeStyle=orthogonalEdgeStyle;rounded=0;orthogonalLoop=1;jettySize=auto;html=1;exitX=1;exitY=0.5;exitDx=0;exitDy=0;entryX=0;entryY=0.5;entryDx=0;entryDy=0;" edge="1" parent="1" source="MedS3iBNAUiih5z8siWC-3" target="MedS3iBNAUiih5z8siWC-4">
          <mxGeometry relative="1" as="geometry" />
        </mxCell>
        <mxCell id="MedS3iBNAUiih5z8siWC-3" value="Agenda vorstellen (PO)" style="rounded=1;whiteSpace=wrap;html=1;" vertex="1" parent="1">
          <mxGeometry x="120" y="40" width="160" height="40" as="geometry" />
        </mxCell>
        <mxCell id="MedS3iBNAUiih5z8siWC-31" style="edgeStyle=orthogonalEdgeStyle;rounded=0;orthogonalLoop=1;jettySize=auto;html=1;exitX=1;exitY=0.5;exitDx=0;exitDy=0;entryX=0;entryY=0.5;entryDx=0;entryDy=0;" edge="1" parent="1" source="MedS3iBNAUiih5z8siWC-4" target="MedS3iBNAUiih5z8siWC-5">
          <mxGeometry relative="1" as="geometry" />
        </mxCell>
        <mxCell id="MedS3iBNAUiih5z8siWC-4" value="Sprintziel vorstellen (PO)" style="rounded=1;whiteSpace=wrap;html=1;" vertex="1" parent="1">
          <mxGeometry x="320" y="40" width="160" height="40" as="geometry" />
        </mxCell>
        <mxCell id="MedS3iBNAUiih5z8siWC-5" value="Sprintziel erstellen" style="rounded=1;whiteSpace=wrap;html=1;" vertex="1" parent="1">
          <mxGeometry x="520" y="40" width="160" height="40" as="geometry" />
        </mxCell>
        <mxCell id="MedS3iBNAUiih5z8siWC-33" style="edgeStyle=orthogonalEdgeStyle;rounded=0;orthogonalLoop=1;jettySize=auto;html=1;exitX=1;exitY=0.5;exitDx=0;exitDy=0;exitPerimeter=0;entryX=0;entryY=0.5;entryDx=0;entryDy=0;" edge="1" parent="1" source="MedS3iBNAUiih5z8siWC-7" target="MedS3iBNAUiih5z8siWC-11">
          <mxGeometry relative="1" as="geometry" />
        </mxCell>
        <mxCell id="MedS3iBNAUiih5z8siWC-7" value="&lt;font style=&quot;font-size: 12px;&quot;&gt;Sprintzieldokument erstellt&lt;/font&gt;" style="strokeWidth=2;html=1;shape=mxgraph.flowchart.terminator;whiteSpace=wrap;fillColor=#ffe6cc;strokeColor=#d79b00;" vertex="1" parent="1">
          <mxGeometry x="720" y="40" width="160" height="40" as="geometry" />
        </mxCell>
        <mxCell id="MedS3iBNAUiih5z8siWC-34" style="edgeStyle=orthogonalEdgeStyle;rounded=0;orthogonalLoop=1;jettySize=auto;html=1;exitX=0.5;exitY=1;exitDx=0;exitDy=0;entryX=0.5;entryY=0;entryDx=0;entryDy=0;" edge="1" parent="1" source="MedS3iBNAUiih5z8siWC-11" target="MedS3iBNAUiih5z8siWC-12">
          <mxGeometry relative="1" as="geometry" />
        </mxCell>
        <mxCell id="MedS3iBNAUiih5z8siWC-11" value="Ergebnisse des vorherigen Sprints überprüfen" style="rounded=1;whiteSpace=wrap;html=1;" vertex="1" parent="1">
          <mxGeometry x="920" y="40" width="160" height="40" as="geometry" />
        </mxCell>
        <mxCell id="MedS3iBNAUiih5z8siWC-35" style="edgeStyle=orthogonalEdgeStyle;rounded=0;orthogonalLoop=1;jettySize=auto;html=1;exitX=0;exitY=0.5;exitDx=0;exitDy=0;entryX=1;entryY=0.5;entryDx=0;entryDy=0;" edge="1" parent="1" source="MedS3iBNAUiih5z8siWC-12" target="MedS3iBNAUiih5z8siWC-13">
          <mxGeometry relative="1" as="geometry" />
        </mxCell>
        <mxCell id="MedS3iBNAUiih5z8siWC-12" value="Neue Kapazität (Velocity) ermitteln" style="rounded=1;whiteSpace=wrap;html=1;" vertex="1" parent="1">
          <mxGeometry x="920" y="120" width="160" height="40" as="geometry" />
        </mxCell>
        <mxCell id="MedS3iBNAUiih5z8siWC-13" value="Überblick über Anforderungen geben (PO)" style="rounded=1;whiteSpace=wrap;html=1;" vertex="1" parent="1">
          <mxGeometry x="720" y="120" width="160" height="40" as="geometry" />
        </mxCell>
        <mxCell id="MedS3iBNAUiih5z8siWC-37" style="edgeStyle=orthogonalEdgeStyle;rounded=0;orthogonalLoop=1;jettySize=auto;html=1;exitX=0;exitY=0.5;exitDx=0;exitDy=0;exitPerimeter=0;entryX=1;entryY=0.5;entryDx=0;entryDy=0;" edge="1" parent="1" source="MedS3iBNAUiih5z8siWC-14" target="MedS3iBNAUiih5z8siWC-15">
          <mxGeometry relative="1" as="geometry" />
        </mxCell>
        <mxCell id="MedS3iBNAUiih5z8siWC-14" value="" style="strokeWidth=2;html=1;shape=mxgraph.flowchart.decision;whiteSpace=wrap;fillColor=#647687;strokeColor=#314354;fontColor=#ffffff;" vertex="1" parent="1">
          <mxGeometry x="640" y="120" width="40" height="40" as="geometry" />
        </mxCell>
        <mxCell id="MedS3iBNAUiih5z8siWC-38" style="edgeStyle=orthogonalEdgeStyle;rounded=0;orthogonalLoop=1;jettySize=auto;html=1;exitX=0.5;exitY=1;exitDx=0;exitDy=0;entryX=0.5;entryY=0;entryDx=0;entryDy=0;" edge="1" parent="1" source="MedS3iBNAUiih5z8siWC-15" target="MedS3iBNAUiih5z8siWC-16">
          <mxGeometry relative="1" as="geometry" />
        </mxCell>
        <mxCell id="MedS3iBNAUiih5z8siWC-15" value="Jede Anforderung durchgeben" style="rounded=1;whiteSpace=wrap;html=1;" vertex="1" parent="1">
          <mxGeometry x="440" y="120" width="160" height="40" as="geometry" />
        </mxCell>
        <mxCell id="MedS3iBNAUiih5z8siWC-39" style="edgeStyle=orthogonalEdgeStyle;rounded=0;orthogonalLoop=1;jettySize=auto;html=1;exitX=0.5;exitY=1;exitDx=0;exitDy=0;entryX=0.5;entryY=0;entryDx=0;entryDy=0;" edge="1" parent="1" source="MedS3iBNAUiih5z8siWC-16" target="MedS3iBNAUiih5z8siWC-17">
          <mxGeometry relative="1" as="geometry" />
        </mxCell>
        <mxCell id="MedS3iBNAUiih5z8siWC-16" value="Anforderung analysieren" style="rounded=1;whiteSpace=wrap;html=1;" vertex="1" parent="1">
          <mxGeometry x="440" y="200" width="160" height="40" as="geometry" />
        </mxCell>
        <mxCell id="MedS3iBNAUiih5z8siWC-40" style="edgeStyle=orthogonalEdgeStyle;rounded=0;orthogonalLoop=1;jettySize=auto;html=1;exitX=0.5;exitY=1;exitDx=0;exitDy=0;entryX=0.5;entryY=0;entryDx=0;entryDy=0;" edge="1" parent="1" source="MedS3iBNAUiih5z8siWC-17" target="MedS3iBNAUiih5z8siWC-18">
          <mxGeometry relative="1" as="geometry" />
        </mxCell>
        <mxCell id="MedS3iBNAUiih5z8siWC-17" value="Rahmenbedingungen und Einflussfaktoren besprechen" style="rounded=1;whiteSpace=wrap;html=1;" vertex="1" parent="1">
          <mxGeometry x="440" y="280" width="160" height="40" as="geometry" />
        </mxCell>
        <mxCell id="MedS3iBNAUiih5z8siWC-18" value="Anforderungen klar genug?" style="shape=hexagon;perimeter=hexagonPerimeter2;whiteSpace=wrap;html=1;fixedSize=1;fillColor=#e1d5e7;strokeColor=#9673a6;" vertex="1" parent="1">
          <mxGeometry x="440" y="360" width="160" height="40" as="geometry" />
        </mxCell>
        <mxCell id="MedS3iBNAUiih5z8siWC-45" style="edgeStyle=orthogonalEdgeStyle;rounded=0;orthogonalLoop=1;jettySize=auto;html=1;exitX=0.5;exitY=1;exitDx=0;exitDy=0;entryX=0.5;entryY=0;entryDx=0;entryDy=0;" edge="1" parent="1" source="MedS3iBNAUiih5z8siWC-19" target="MedS3iBNAUiih5z8siWC-21">
          <mxGeometry relative="1" as="geometry" />
        </mxCell>
        <mxCell id="MedS3iBNAUiih5z8siWC-19" value="Anforderungen schätzen (Planning Poker)" style="rounded=1;whiteSpace=wrap;html=1;" vertex="1" parent="1">
          <mxGeometry x="240" y="400" width="160" height="40" as="geometry" />
        </mxCell>
        <mxCell id="MedS3iBNAUiih5z8siWC-21" value="Anforderung aufnehmen?" style="shape=hexagon;perimeter=hexagonPerimeter2;whiteSpace=wrap;html=1;fixedSize=1;fillColor=#e1d5e7;strokeColor=#9673a6;" vertex="1" parent="1">
          <mxGeometry x="240" y="480" width="160" height="40" as="geometry" />
        </mxCell>
        <mxCell id="MedS3iBNAUiih5z8siWC-50" style="edgeStyle=orthogonalEdgeStyle;rounded=0;orthogonalLoop=1;jettySize=auto;html=1;exitX=0.5;exitY=1;exitDx=0;exitDy=0;" edge="1" parent="1" source="MedS3iBNAUiih5z8siWC-22" target="MedS3iBNAUiih5z8siWC-24">
          <mxGeometry relative="1" as="geometry" />
        </mxCell>
        <mxCell id="MedS3iBNAUiih5z8siWC-22" value="Anforderung in das Selektierte Produkt Backlog aufnehmen" style="rounded=1;whiteSpace=wrap;html=1;" vertex="1" parent="1">
          <mxGeometry x="40" y="520" width="160" height="40" as="geometry" />
        </mxCell>
        <mxCell id="MedS3iBNAUiih5z8siWC-24" value="Selektierter Produkt Backlog aktualisiert" style="strokeWidth=2;html=1;shape=mxgraph.flowchart.terminator;whiteSpace=wrap;fillColor=#d5e8d4;strokeColor=#82b366;" vertex="1" parent="1">
          <mxGeometry x="40" y="600" width="160" height="40" as="geometry" />
        </mxCell>
        <mxCell id="MedS3iBNAUiih5z8siWC-52" style="edgeStyle=orthogonalEdgeStyle;rounded=0;orthogonalLoop=1;jettySize=auto;html=1;exitX=0.5;exitY=1;exitDx=0;exitDy=0;entryX=0.5;entryY=0;entryDx=0;entryDy=0;" edge="1" parent="1" source="MedS3iBNAUiih5z8siWC-25" target="MedS3iBNAUiih5z8siWC-51">
          <mxGeometry relative="1" as="geometry" />
        </mxCell>
        <mxCell id="MedS3iBNAUiih5z8siWC-25" value="Anforderung zurück in das Produkt Backlog legen" style="rounded=1;whiteSpace=wrap;html=1;" vertex="1" parent="1">
          <mxGeometry x="440" y="520" width="160" height="40" as="geometry" />
        </mxCell>
        <mxCell id="MedS3iBNAUiih5z8siWC-26" value="Sprintzieldokument anpassen" style="strokeWidth=2;html=1;shape=mxgraph.flowchart.terminator;whiteSpace=wrap;fillColor=#ffe6cc;strokeColor=#d79b00;" vertex="1" parent="1">
          <mxGeometry x="240" y="640" width="160" height="40" as="geometry" />
        </mxCell>
        <mxCell id="MedS3iBNAUiih5z8siWC-62" style="edgeStyle=orthogonalEdgeStyle;rounded=0;orthogonalLoop=1;jettySize=auto;html=1;exitX=0.5;exitY=1;exitDx=0;exitDy=0;exitPerimeter=0;entryX=0;entryY=0.5;entryDx=0;entryDy=0;" edge="1" parent="1" source="MedS3iBNAUiih5z8siWC-28" target="MedS3iBNAUiih5z8siWC-61">
          <mxGeometry relative="1" as="geometry" />
        </mxCell>
        <mxCell id="MedS3iBNAUiih5z8siWC-28" value="" style="strokeWidth=2;html=1;shape=mxgraph.flowchart.decision;whiteSpace=wrap;fillColor=#647687;fontColor=#ffffff;strokeColor=#314354;" vertex="1" parent="1">
          <mxGeometry x="320" y="720" width="40" height="40" as="geometry" />
        </mxCell>
        <mxCell id="MedS3iBNAUiih5z8siWC-32" style="edgeStyle=orthogonalEdgeStyle;rounded=0;orthogonalLoop=1;jettySize=auto;html=1;exitX=1;exitY=0.5;exitDx=0;exitDy=0;entryX=0;entryY=0.5;entryDx=0;entryDy=0;entryPerimeter=0;" edge="1" parent="1" source="MedS3iBNAUiih5z8siWC-5" target="MedS3iBNAUiih5z8siWC-7">
          <mxGeometry relative="1" as="geometry" />
        </mxCell>
        <mxCell id="MedS3iBNAUiih5z8siWC-36" style="edgeStyle=orthogonalEdgeStyle;rounded=0;orthogonalLoop=1;jettySize=auto;html=1;exitX=0;exitY=0.5;exitDx=0;exitDy=0;entryX=1;entryY=0.5;entryDx=0;entryDy=0;entryPerimeter=0;" edge="1" parent="1" source="MedS3iBNAUiih5z8siWC-13" target="MedS3iBNAUiih5z8siWC-14">
          <mxGeometry relative="1" as="geometry" />
        </mxCell>
        <mxCell id="MedS3iBNAUiih5z8siWC-41" value="" style="endArrow=classic;html=1;rounded=0;exitX=1;exitY=0.5;exitDx=0;exitDy=0;entryX=0.5;entryY=1;entryDx=0;entryDy=0;entryPerimeter=0;" edge="1" parent="1" source="MedS3iBNAUiih5z8siWC-18" target="MedS3iBNAUiih5z8siWC-14">
          <mxGeometry relative="1" as="geometry">
            <mxPoint x="600" y="320" as="sourcePoint" />
            <mxPoint x="720" y="320" as="targetPoint" />
            <Array as="points">
              <mxPoint x="660" y="380" />
            </Array>
          </mxGeometry>
        </mxCell>
        <mxCell id="MedS3iBNAUiih5z8siWC-42" value="Nein" style="edgeLabel;resizable=0;html=1;;align=center;verticalAlign=middle;" connectable="0" vertex="1" parent="MedS3iBNAUiih5z8siWC-41">
          <mxGeometry relative="1" as="geometry" />
        </mxCell>
        <mxCell id="MedS3iBNAUiih5z8siWC-43" value="J" style="endArrow=classic;html=1;rounded=0;exitX=0;exitY=0.5;exitDx=0;exitDy=0;entryX=0.5;entryY=0;entryDx=0;entryDy=0;" edge="1" parent="1" source="MedS3iBNAUiih5z8siWC-18" target="MedS3iBNAUiih5z8siWC-19">
          <mxGeometry relative="1" as="geometry">
            <mxPoint x="610" y="390" as="sourcePoint" />
            <mxPoint x="670" y="170" as="targetPoint" />
            <Array as="points">
              <mxPoint x="320" y="380" />
            </Array>
          </mxGeometry>
        </mxCell>
        <mxCell id="MedS3iBNAUiih5z8siWC-44" value="Ja" style="edgeLabel;resizable=0;html=1;;align=center;verticalAlign=middle;" connectable="0" vertex="1" parent="MedS3iBNAUiih5z8siWC-43">
          <mxGeometry relative="1" as="geometry" />
        </mxCell>
        <mxCell id="MedS3iBNAUiih5z8siWC-46" value="J" style="endArrow=classic;html=1;rounded=0;exitX=0;exitY=0.5;exitDx=0;exitDy=0;entryX=0.5;entryY=0;entryDx=0;entryDy=0;" edge="1" parent="1" source="MedS3iBNAUiih5z8siWC-21" target="MedS3iBNAUiih5z8siWC-22">
          <mxGeometry relative="1" as="geometry">
            <mxPoint x="450" y="390" as="sourcePoint" />
            <mxPoint x="330" y="410" as="targetPoint" />
            <Array as="points">
              <mxPoint x="120" y="500" />
            </Array>
          </mxGeometry>
        </mxCell>
        <mxCell id="MedS3iBNAUiih5z8siWC-47" value="Ja" style="edgeLabel;resizable=0;html=1;;align=center;verticalAlign=middle;" connectable="0" vertex="1" parent="MedS3iBNAUiih5z8siWC-46">
          <mxGeometry relative="1" as="geometry" />
        </mxCell>
        <mxCell id="MedS3iBNAUiih5z8siWC-48" value="" style="endArrow=classic;html=1;rounded=0;exitX=1;exitY=0.5;exitDx=0;exitDy=0;" edge="1" parent="1" source="MedS3iBNAUiih5z8siWC-21">
          <mxGeometry relative="1" as="geometry">
            <mxPoint x="450" y="520" as="sourcePoint" />
            <mxPoint x="520" y="520" as="targetPoint" />
            <Array as="points">
              <mxPoint x="520" y="500" />
            </Array>
          </mxGeometry>
        </mxCell>
        <mxCell id="MedS3iBNAUiih5z8siWC-49" value="Nein" style="edgeLabel;resizable=0;html=1;;align=center;verticalAlign=middle;" connectable="0" vertex="1" parent="MedS3iBNAUiih5z8siWC-48">
          <mxGeometry relative="1" as="geometry" />
        </mxCell>
        <mxCell id="MedS3iBNAUiih5z8siWC-51" value="Muss Zieldokument angepasst werden??" style="shape=hexagon;perimeter=hexagonPerimeter2;whiteSpace=wrap;html=1;fixedSize=1;fillColor=#e1d5e7;strokeColor=#9673a6;" vertex="1" parent="1">
          <mxGeometry x="440" y="600" width="160" height="40" as="geometry" />
        </mxCell>
        <mxCell id="MedS3iBNAUiih5z8siWC-58" style="edgeStyle=orthogonalEdgeStyle;rounded=0;orthogonalLoop=1;jettySize=auto;html=1;exitX=0.5;exitY=1;exitDx=0;exitDy=0;exitPerimeter=0;" edge="1" parent="1" source="MedS3iBNAUiih5z8siWC-53" target="MedS3iBNAUiih5z8siWC-28">
          <mxGeometry relative="1" as="geometry" />
        </mxCell>
        <mxCell id="MedS3iBNAUiih5z8siWC-53" value="" style="strokeWidth=2;html=1;shape=mxgraph.flowchart.decision;whiteSpace=wrap;fillColor=#647687;fontColor=#ffffff;strokeColor=#314354;" vertex="1" parent="1">
          <mxGeometry x="480" y="680" width="40" height="40" as="geometry" />
        </mxCell>
        <mxCell id="MedS3iBNAUiih5z8siWC-54" style="edgeStyle=orthogonalEdgeStyle;rounded=0;orthogonalLoop=1;jettySize=auto;html=1;exitX=0.5;exitY=1;exitDx=0;exitDy=0;exitPerimeter=0;entryX=0;entryY=0.5;entryDx=0;entryDy=0;entryPerimeter=0;" edge="1" parent="1" source="MedS3iBNAUiih5z8siWC-24" target="MedS3iBNAUiih5z8siWC-28">
          <mxGeometry relative="1" as="geometry" />
        </mxCell>
        <mxCell id="MedS3iBNAUiih5z8siWC-55" value="J" style="endArrow=classic;html=1;rounded=0;exitX=0;exitY=0.5;exitDx=0;exitDy=0;entryX=0.5;entryY=0;entryDx=0;entryDy=0;entryPerimeter=0;" edge="1" parent="1" source="MedS3iBNAUiih5z8siWC-51" target="MedS3iBNAUiih5z8siWC-26">
          <mxGeometry relative="1" as="geometry">
            <mxPoint x="250" y="510" as="sourcePoint" />
            <mxPoint x="130" y="530" as="targetPoint" />
            <Array as="points">
              <mxPoint x="320" y="620" />
            </Array>
          </mxGeometry>
        </mxCell>
        <mxCell id="MedS3iBNAUiih5z8siWC-56" value="Ja" style="edgeLabel;resizable=0;html=1;;align=center;verticalAlign=middle;" connectable="0" vertex="1" parent="MedS3iBNAUiih5z8siWC-55">
          <mxGeometry relative="1" as="geometry" />
        </mxCell>
        <mxCell id="MedS3iBNAUiih5z8siWC-57" style="edgeStyle=orthogonalEdgeStyle;rounded=0;orthogonalLoop=1;jettySize=auto;html=1;exitX=0.5;exitY=1;exitDx=0;exitDy=0;exitPerimeter=0;entryX=0;entryY=0.5;entryDx=0;entryDy=0;entryPerimeter=0;" edge="1" parent="1" source="MedS3iBNAUiih5z8siWC-26" target="MedS3iBNAUiih5z8siWC-53">
          <mxGeometry relative="1" as="geometry" />
        </mxCell>
        <mxCell id="MedS3iBNAUiih5z8siWC-59" value="" style="endArrow=classic;html=1;rounded=0;exitX=1;exitY=0.5;exitDx=0;exitDy=0;entryX=1;entryY=0.5;entryDx=0;entryDy=0;entryPerimeter=0;" edge="1" parent="1" source="MedS3iBNAUiih5z8siWC-51" target="MedS3iBNAUiih5z8siWC-53">
          <mxGeometry relative="1" as="geometry">
            <mxPoint x="450" y="620" as="sourcePoint" />
            <mxPoint x="550" y="620" as="targetPoint" />
            <Array as="points">
              <mxPoint x="600" y="700" />
            </Array>
          </mxGeometry>
        </mxCell>
        <mxCell id="MedS3iBNAUiih5z8siWC-60" value="Nein" style="edgeLabel;resizable=0;html=1;;align=center;verticalAlign=middle;" connectable="0" vertex="1" parent="MedS3iBNAUiih5z8siWC-59">
          <mxGeometry relative="1" as="geometry">
            <mxPoint y="-40" as="offset" />
          </mxGeometry>
        </mxCell>
        <mxCell id="MedS3iBNAUiih5z8siWC-61" value="Weitere Anforderungen?" style="shape=hexagon;perimeter=hexagonPerimeter2;whiteSpace=wrap;html=1;fixedSize=1;fillColor=#e1d5e7;strokeColor=#9673a6;" vertex="1" parent="1">
          <mxGeometry x="440" y="800" width="160" height="40" as="geometry" />
        </mxCell>
        <mxCell id="MedS3iBNAUiih5z8siWC-63" value="" style="endArrow=classic;html=1;rounded=0;exitX=1;exitY=0.5;exitDx=0;exitDy=0;" edge="1" parent="1" source="MedS3iBNAUiih5z8siWC-61">
          <mxGeometry relative="1" as="geometry">
            <mxPoint x="450" y="720" as="sourcePoint" />
            <mxPoint x="660" y="160" as="targetPoint" />
            <Array as="points">
              <mxPoint x="720" y="820" />
              <mxPoint x="720" y="200" />
            </Array>
          </mxGeometry>
        </mxCell>
        <mxCell id="MedS3iBNAUiih5z8siWC-64" value="Ja" style="edgeLabel;resizable=0;html=1;;align=center;verticalAlign=middle;" connectable="0" vertex="1" parent="MedS3iBNAUiih5z8siWC-63">
          <mxGeometry relative="1" as="geometry">
            <mxPoint x="-60" y="286" as="offset" />
          </mxGeometry>
        </mxCell>
        <mxCell id="MedS3iBNAUiih5z8siWC-69" style="edgeStyle=orthogonalEdgeStyle;rounded=0;orthogonalLoop=1;jettySize=auto;html=1;exitX=0.5;exitY=1;exitDx=0;exitDy=0;entryX=0.5;entryY=0;entryDx=0;entryDy=0;" edge="1" parent="1" source="MedS3iBNAUiih5z8siWC-65" target="MedS3iBNAUiih5z8siWC-68">
          <mxGeometry relative="1" as="geometry" />
        </mxCell>
        <mxCell id="MedS3iBNAUiih5z8siWC-65" value="Forecast aller Beteiligten erstellen" style="rounded=1;whiteSpace=wrap;html=1;" vertex="1" parent="1">
          <mxGeometry x="440" y="880" width="160" height="40" as="geometry" />
        </mxCell>
        <mxCell id="MedS3iBNAUiih5z8siWC-66" value="" style="endArrow=classic;html=1;rounded=0;exitX=0.5;exitY=1;exitDx=0;exitDy=0;" edge="1" parent="1" source="MedS3iBNAUiih5z8siWC-61" target="MedS3iBNAUiih5z8siWC-65">
          <mxGeometry relative="1" as="geometry">
            <mxPoint x="500" y="970" as="sourcePoint" />
            <mxPoint x="600" y="970" as="targetPoint" />
          </mxGeometry>
        </mxCell>
        <mxCell id="MedS3iBNAUiih5z8siWC-67" value="Nein" style="edgeLabel;resizable=0;html=1;;align=center;verticalAlign=middle;" connectable="0" vertex="1" parent="MedS3iBNAUiih5z8siWC-66">
          <mxGeometry relative="1" as="geometry" />
        </mxCell>
        <mxCell id="MedS3iBNAUiih5z8siWC-76" style="edgeStyle=orthogonalEdgeStyle;rounded=0;orthogonalLoop=1;jettySize=auto;html=1;exitX=0.5;exitY=1;exitDx=0;exitDy=0;" edge="1" parent="1" source="MedS3iBNAUiih5z8siWC-68" target="MedS3iBNAUiih5z8siWC-74">
          <mxGeometry relative="1" as="geometry" />
        </mxCell>
        <mxCell id="MedS3iBNAUiih5z8siWC-68" value="Ergebnisse in Confluence dokumentieren" style="rounded=1;whiteSpace=wrap;html=1;" vertex="1" parent="1">
          <mxGeometry x="440" y="960" width="160" height="40" as="geometry" />
        </mxCell>
        <mxCell id="MedS3iBNAUiih5z8siWC-70" value="Sprintzieldokument dokumentiert" style="strokeWidth=2;html=1;shape=mxgraph.flowchart.terminator;whiteSpace=wrap;fillColor=#ffe6cc;strokeColor=#d79b00;" vertex="1" parent="1">
          <mxGeometry x="260" y="1040" width="160" height="40" as="geometry" />
        </mxCell>
        <mxCell id="MedS3iBNAUiih5z8siWC-71" value="Backlog dokumentiert" style="strokeWidth=2;html=1;shape=mxgraph.flowchart.terminator;whiteSpace=wrap;fillColor=#d5e8d4;strokeColor=#82b366;" vertex="1" parent="1">
          <mxGeometry x="440" y="1040" width="160" height="40" as="geometry" />
        </mxCell>
        <mxCell id="MedS3iBNAUiih5z8siWC-72" value="Selbsteinschätzung dokumentiert" style="strokeWidth=2;html=1;shape=mxgraph.flowchart.terminator;whiteSpace=wrap;fillColor=#f8cecc;strokeColor=#b85450;" vertex="1" parent="1">
          <mxGeometry x="620" y="1040" width="160" height="40" as="geometry" />
        </mxCell>
        <mxCell id="MedS3iBNAUiih5z8siWC-74" value="" style="line;strokeWidth=4;html=1;perimeter=backbonePerimeter;points=[];outlineConnect=0;" vertex="1" parent="1">
          <mxGeometry x="240" y="1030" width="560" height="10" as="geometry" />
        </mxCell>
        <mxCell id="MedS3iBNAUiih5z8siWC-75" value="" style="line;strokeWidth=4;html=1;perimeter=backbonePerimeter;points=[];outlineConnect=0;" vertex="1" parent="1">
          <mxGeometry x="240" y="1080" width="560" height="10" as="geometry" />
        </mxCell>
        <mxCell id="MedS3iBNAUiih5z8siWC-80" style="edgeStyle=orthogonalEdgeStyle;rounded=0;orthogonalLoop=1;jettySize=auto;html=1;exitX=0.5;exitY=1;exitDx=0;exitDy=0;entryX=0.5;entryY=0;entryDx=0;entryDy=0;" edge="1" parent="1" source="MedS3iBNAUiih5z8siWC-77" target="MedS3iBNAUiih5z8siWC-78">
          <mxGeometry relative="1" as="geometry" />
        </mxCell>
        <mxCell id="MedS3iBNAUiih5z8siWC-77" value="Überleitung zu Planning Meeting Nr. 2" style="rounded=1;whiteSpace=wrap;html=1;" vertex="1" parent="1">
          <mxGeometry x="440" y="1120" width="160" height="40" as="geometry" />
        </mxCell>
        <mxCell id="MedS3iBNAUiih5z8siWC-78" value="" style="ellipse;html=1;shape=endState;fillColor=#000000;strokeColor=#262626;" vertex="1" parent="1">
          <mxGeometry x="500" y="1200" width="40" height="40" as="geometry" />
        </mxCell>
        <mxCell id="MedS3iBNAUiih5z8siWC-85" value="" style="endArrow=classic;html=1;rounded=0;" edge="1" parent="1" source="MedS3iBNAUiih5z8siWC-75" target="MedS3iBNAUiih5z8siWC-77">
          <mxGeometry width="50" height="50" relative="1" as="geometry">
            <mxPoint x="520" y="1500" as="sourcePoint" />
            <mxPoint x="570" y="1450" as="targetPoint" />
          </mxGeometry>
        </mxCell>
      </root>
    </mxGraphModel>
  </diagram>
</mxfile>
